# xmcd
#
# Track frame offsets: 
#        150
#        16483
#        39910
#        52979
#        77640
#        89697
#        108711
#        123662
#        141237
#        156714
#        174652
#        183506
#        201289
#        214541
#        232904
#        249868
#
# Disc length: 3671 seconds
#
# Revision: 3
# Processed by: cddbd v1.5.2PL0 Copyright (c) Steve Scherf et al.
# Submitted via: ExactAudioCopyFreeDBPlugin 1.0
#
DISCID=df0e5510
DTITLE=Anderson .Paak - Malibu
DYEAR=2015
DGENRE=R&B
TTITLE0=The Bird
TTITLE1=Heart Don't Stand a Chance
TTITLE2=The Waters (feat. BJ the Chicago Kid)
TTITLE3=The Season | Carry Me
TTITLE4=Put Me Thru
TTITLE5=Am I Wrong (feat. ScHoolboy Q)
TTITLE6=Without You (feat. Rapsody)
TTITLE7=Parking Lot
TTITLE8=Lite Weight (feat. The Free Nationals United Fellowship Choir)
TTITLE9=Room in Here (feat. The Game and Sonyae Elise)
TTITLE10=Waterfall (Interluuube)
TTITLE11=Your Prime
TTITLE12=Come Down
TTITLE13=Silicon Valley
TTITLE14=Celebrate
TTITLE15=The Dreamer (feat. Talib Kweli and Timan Family Choir)
EXTD=
EXTT0=
EXTT1=
EXTT2=
EXTT3=
EXTT4=
EXTT5=
EXTT6=
EXTT7=
EXTT8=
EXTT9=
EXTT10=
EXTT11=
EXTT12=
EXTT13=
EXTT14=
EXTT15=
PLAYORDER=
